# xmcd
#
# Track frame offsets: 
#        150
#        13650
#        29561
#        40684
#        54060
#        69831
#        85001
#        106144
#        121108
#        153249
#        167276
#        190330
#        204590
#        220087
#        233435
#        250043
#        264631
#        277565
#        291515
#        312609
#        326675
#
# Disc length: 4582 seconds
#
# Revision: 0
# Processed by: cddbd v1.5.2PL0 Copyright (c) Steve Scherf et al.
# Submitted via: ExactAudioCopy v1.2
#
DISCID=0f11e415
DTITLE=Various Artist - 7th European Blues Challenge
DYEAR=2017
DGENRE=Sampler Blues
TTITLE0=The Blues Infusion - I Put A Spell On You
TTITLE1=The Bluesbones - Find Me A Woman
TTITLE2=Rolin Humes - IfI Could be Someone Else Instead Of Me
TTITLE3=The Cornfeds - I Wouldn't Last a Day
TTITLE4=Rene Paul Blues Band - Hot Stuff
TTITLE5=Honey B. Family - Keep Your Lamp Trimmed And Burning
TTITLE6=Gaelle Buswel - 25 Hours
TTITLE7=Chris Kramer and Beatboxin 'N' Blues - Bo
TTITLE8=Borsodi Blues Collective - Get Burned By The Sun
TTITLE9=Bayou Moonshiners - Big Time Woman
TTITLE10=Kid Colling - In The Devil's Court
TTITLE11=Detonics - She Knows How To Love Me
TTITLE12=Daniel Eriksen - Tornado Angel
TTITLE13=Hot Tamales - Peculiar Love Surprise
TTITLE14=Messias and The Hot Tones - You're Mine
TTITLE15=Southernman Robbie - Hard Times
TTITLE16=Slovak Blues Project - Going Down South
TTITLE17=Los Mambo Jambo - Fuege Cruzado
TTITLE18=Headline Blues Band - Infected By Evil
TTITLE19=Pascal Geiser - Blues On My Tail
TTITLE20=Kaz Hawkins Band - Belfast Town
EXTD=
EXTT0=
EXTT1=
EXTT2=
EXTT3=
EXTT4=
EXTT5=
EXTT6=
EXTT7=
EXTT8=
EXTT9=
EXTT10=
EXTT11=
EXTT12=
EXTT13=
EXTT14=
EXTT15=
EXTT16=
EXTT17=
EXTT18=
EXTT19=
EXTT20=
PLAYORDER=
